<?xml version="1.0" encoding="iso-8859-1"?>
<!-- Generator: Adobe Illustrator 19.0.0, SVG Export Plug-In . SVG Version: 6.00 Build 0)  -->
<svg xmlns="http://www.w3.org/2000/svg" xmlns:xlink="http://www.w3.org/1999/xlink" version="1.1" id="Capa_1" x="0px" y="0px" viewBox="0 0 512.001 512.001" style="enable-background:new 0 0 512.001 512.001;" xml:space="preserve" width="512px" height="512px">
<g>
	<g>
		<path d="M161.879,444.385c-11.516,0-20.885,9.369-20.885,20.884c0,11.516,9.369,20.885,20.885,20.885    c11.516,0,20.884-9.369,20.884-20.885C182.763,453.754,173.394,444.385,161.879,444.385z M161.879,471.583    c-3.481,0-6.313-2.832-6.313-6.313c0-3.481,2.832-6.313,6.313-6.313c3.481,0,6.312,2.832,6.312,6.313    C168.191,468.75,165.359,471.583,161.879,471.583z" fill="#FFFFFF"/>
	</g>
</g>
<g>
	<g>
		<path d="M407.358,444.385c-11.516,0-20.885,9.369-20.885,20.884c0,11.516,9.369,20.885,20.885,20.885s20.885-9.369,20.885-20.885    C428.243,453.754,418.874,444.385,407.358,444.385z M407.358,471.583c-3.481,0-6.313-2.832-6.313-6.313    c0-3.481,2.832-6.313,6.313-6.313c3.481,0,6.313,2.832,6.313,6.313C413.672,468.75,410.839,471.583,407.358,471.583z" fill="#FFFFFF"/>
	</g>
</g>
<g>
	<g>
		<path d="M195.024,320.538c-4.024,0-7.286,3.262-7.286,7.286v39.43c0.001,4.024,3.263,7.286,7.286,7.286    c4.024,0,7.286-3.262,7.286-7.286v-39.43C202.31,323.8,199.048,320.538,195.024,320.538z" fill="#FFFFFF"/>
	</g>
</g>
<g>
	<g>
		<path d="M195.024,261.609c-4.024,0-7.286,3.262-7.286,7.286v13.662c0.001,4.024,3.263,7.286,7.286,7.286    c4.024,0,7.286-3.262,7.286-7.286v-13.662C202.31,264.871,199.048,261.609,195.024,261.609z" fill="#FFFFFF"/>
	</g>
</g>
<g>
	<g>
		<path d="M254.72,261.609c-4.024,0-7.286,3.262-7.286,7.286v98.359c0,4.024,3.262,7.286,7.286,7.286s7.286-3.262,7.286-7.286    v-98.359C262.006,264.871,258.744,261.609,254.72,261.609z" fill="#FFFFFF"/>
	</g>
</g>
<g>
	<g>
		<path d="M314.415,261.609c-4.024,0-7.286,3.262-7.286,7.286v98.359c0,4.024,3.262,7.286,7.286,7.286s7.286-3.262,7.286-7.286    v-98.359C321.701,264.871,318.439,261.609,314.415,261.609z" fill="#FFFFFF"/>
	</g>
</g>
<g>
	<g>
		<path d="M374.111,261.609c-4.024,0-7.286,3.262-7.286,7.286v98.359c0,4.024,3.262,7.286,7.286,7.286s7.286-3.262,7.286-7.286    v-98.359C381.397,264.871,378.135,261.609,374.111,261.609z" fill="#FFFFFF"/>
	</g>
</g>
<g>
	<g>
		<path d="M461.859,427.074h-27.705c-7.591-5.338-16.829-8.484-26.794-8.484c-9.964,0-19.202,3.147-26.794,8.484H188.674    c-5.024-3.533-10.769-6.103-16.971-7.436l-1.639-11.793h249.051c4.804,0,9.049-3.063,10.563-7.622l51.554-155.169    c1.125-3.384,0.551-7.131-1.536-10.023c-2.087-2.892-5.462-4.619-9.028-4.619h-69.025l13.32-41.79l9.696,17.412    c2.679,4.81,7.042,8.38,12.285,10.051c2.126,0.677,4.332,1.012,6.532,1.012c3.645,0,7.276-0.918,10.505-2.716    c5.031-2.801,8.67-7.394,10.247-12.932c1.577-5.539,0.902-11.36-1.899-16.391l-19.766-35.496c-1.958-3.514-6.394-4.778-9.91-2.821    c-3.515,1.958-4.778,6.395-2.821,9.91l19.766,35.496c0.907,1.63,1.126,3.516,0.615,5.311c-0.511,1.795-1.691,3.283-3.32,4.191    c-1.703,0.948-3.665,1.145-5.524,0.552c-1.698-0.541-3.112-1.698-3.98-3.257l-87.258-156.7c-1.871-3.361-6.034-4.686-9.506-3.03    l-161.843,77.305c-1.684,0.805-3.579,0.905-5.34,0.283c-1.759-0.622-3.171-1.892-3.975-3.576s-0.905-3.58-0.283-5.34    c0.622-1.759,1.892-3.171,3.576-3.975l173.941-83.084c3.321-1.588,7.325-0.31,9.115,2.906l51.986,93.358    c1.959,3.515,6.395,4.778,9.91,2.821c3.515-1.958,4.778-6.395,2.821-9.91l-51.986-93.358c-5.525-9.923-17.881-13.862-28.127-8.965    l-52.151,24.91l3.679-11.542c1.672-5.252-1.239-10.887-6.492-12.563l-25.119-8.006c-2.546-0.812-5.255-0.583-7.627,0.643    c-2.373,1.226-4.127,3.303-4.938,5.847l-16.906,53.04l-64.389,30.755c-5.196,2.482-9.115,6.839-11.034,12.268    c-1.919,5.429-1.609,11.281,0.873,16.476c2.482,5.196,6.838,9.115,12.267,11.035c5.431,1.919,11.282,1.61,16.478-0.873    l17.983-8.589l-34.849,109.335h-24.167l-8.886-59.556c-1.711-11.447-10.478-20.702-21.816-23.028l-58.602-12.028    c-5.952-1.221-12.026-0.052-17.101,3.293c-5.074,3.346-8.541,8.467-9.762,14.42c-1.222,5.953-0.053,12.027,3.293,17.1    c3.346,5.074,8.467,8.541,14.421,9.762l46.403,9.524l35.758,243.574c-7.784,8.347-12.56,19.533-12.56,31.82    c0,25.753,20.951,46.705,46.705,46.705c23.275,0,42.624-17.114,46.133-39.419h153.214c3.509,22.303,22.857,39.417,46.132,39.417    c23.275,0,42.624-17.114,46.133-39.419h8.366c12.546,0,22.753-10.207,22.753-22.753    C484.612,437.281,474.405,427.074,461.859,427.074z M260.268,15.748l16.408,5.23l-6.447,20.227l-21.321,10.184L260.268,15.748z     M221.086,112.461L340.73,55.313l64.506,115.843l-18.887,59.258h-61.024l16.981-53.278c1.979-6.209-1.461-12.871-7.671-14.851    l-50.834-16.202c-6.209-1.981-12.871,1.461-14.851,7.671l-24.434,76.66h-61.025L221.086,112.461z M310.03,230.413h-50.22    l22.187-69.611l45.59,14.53L310.03,230.413z M465.9,244.984l-49.268,148.288H168.038c-0.003-0.021,0,0-0.003-0.021    l-21.849-148.267H465.9z M105.636,182.71c-0.452-3.024-2.745-5.445-5.741-6.06l-51.391-10.548c-2.141-0.44-3.982-1.686-5.185-3.51    c-1.203-1.824-1.623-4.008-1.184-6.149c0.44-2.141,1.686-3.982,3.511-5.185c1.353-0.892,2.902-1.354,4.487-1.354    c0.552,0,1.109,0.056,1.662,0.17l58.603,12.029c5.371,1.102,9.524,5.486,10.334,10.908l36.151,245.845    c-0.639,0.068-1.275,0.153-1.909,0.248c-0.261,0.039-0.519,0.086-0.778,0.129c-0.519,0.086-1.037,0.174-1.552,0.278    c-0.295,0.059-0.585,0.13-0.878,0.195c-0.431,0.095-0.862,0.191-1.29,0.298c-0.287,0.072-0.57,0.152-0.855,0.23    c-0.437,0.119-0.873,0.24-1.306,0.372c-0.256,0.078-0.509,0.16-0.763,0.242c-0.47,0.151-0.937,0.309-1.402,0.475    c-0.206,0.074-0.411,0.149-0.616,0.226c-0.529,0.198-1.054,0.405-1.575,0.622c-0.133,0.055-0.266,0.11-0.399,0.167    c-0.623,0.266-1.24,0.546-1.852,0.839c-0.028,0.013-0.056,0.026-0.084,0.039c-0.191,0.092-0.385,0.176-0.575,0.271L105.636,182.71    z M161.881,497.427c-17.718,0-32.133-14.415-32.133-32.133c0-13.26,8.074-24.668,19.563-29.57    c0.087-0.037,0.174-0.071,0.261-0.107c0.368-0.153,0.739-0.3,1.113-0.44c0.149-0.056,0.3-0.108,0.45-0.161    c0.315-0.112,0.632-0.22,0.952-0.323c0.193-0.062,0.387-0.121,0.582-0.179c0.282-0.085,0.566-0.165,0.852-0.242    c0.222-0.06,0.444-0.117,0.667-0.172c0.266-0.066,0.534-0.127,0.803-0.186c0.238-0.052,0.476-0.103,0.715-0.15    c0.263-0.051,0.528-0.097,0.793-0.142c0.243-0.041,0.485-0.083,0.73-0.119c0.276-0.04,0.555-0.073,0.834-0.106    c0.233-0.028,0.465-0.058,0.699-0.081c0.321-0.031,0.645-0.052,0.969-0.074c0.194-0.013,0.386-0.031,0.581-0.04    c0.521-0.025,1.044-0.04,1.571-0.04c0.454,0,0.904,0.016,1.354,0.034c0.442,0.021,0.902,0.051,1.39,0.092c0.006,0,0.012,0,0.018,0    c6.58,0.563,12.6,3.113,17.453,7.053c0.195,0.158,0.386,0.321,0.577,0.483c0.25,0.213,0.501,0.425,0.744,0.645    c0.106,0.095,0.207,0.195,0.311,0.291c4.022,3.736,7.089,8.485,8.788,13.84c0.024,0.075,0.049,0.149,0.072,0.224    c0.121,0.392,0.231,0.789,0.338,1.187c0.043,0.164,0.087,0.328,0.128,0.492c0.087,0.347,0.167,0.696,0.242,1.047    c0.048,0.227,0.093,0.455,0.137,0.683c0.059,0.309,0.116,0.619,0.167,0.931c0.046,0.285,0.084,0.572,0.122,0.859    c0.036,0.269,0.074,0.538,0.103,0.81c0.038,0.358,0.065,0.718,0.091,1.078c0.016,0.212,0.037,0.423,0.048,0.636    c0.031,0.58,0.049,1.162,0.049,1.748C194.014,483.013,179.599,497.427,161.881,497.427z M361.219,458.008H208.022    c-0.908-5.816-2.897-11.353-5.846-16.363h164.889C364.116,446.655,362.127,452.192,361.219,458.008z M407.36,497.427    c-17.718,0-32.133-14.415-32.133-32.133c0-0.585,0.018-1.168,0.049-1.748c0.012-0.213,0.033-0.424,0.049-0.636    c0.026-0.36,0.053-0.72,0.091-1.078c0.029-0.271,0.067-0.54,0.103-0.81c0.038-0.287,0.076-0.574,0.122-0.859    c0.05-0.312,0.107-0.622,0.167-0.931c0.044-0.228,0.088-0.456,0.137-0.683c0.075-0.351,0.156-0.7,0.242-1.047    c0.041-0.165,0.084-0.328,0.128-0.492c0.106-0.398,0.217-0.795,0.338-1.187c0.023-0.075,0.048-0.149,0.072-0.224    c1.698-5.355,4.766-10.103,8.788-13.84c0.104-0.097,0.205-0.196,0.311-0.291c0.243-0.22,0.494-0.432,0.744-0.645    c0.191-0.162,0.382-0.325,0.577-0.483c5.526-4.485,12.56-7.179,20.215-7.179c7.657,0,14.693,2.696,20.219,7.183    c0.192,0.156,0.379,0.315,0.567,0.474c0.253,0.215,0.507,0.43,0.754,0.653c0.1,0.09,0.195,0.184,0.294,0.276    c4.03,3.739,7.103,8.494,8.803,13.856c0.023,0.073,0.048,0.146,0.07,0.219c0.122,0.393,0.232,0.791,0.339,1.191    c0.043,0.162,0.086,0.325,0.127,0.488c0.087,0.347,0.167,0.697,0.243,1.049c0.048,0.227,0.093,0.455,0.137,0.683    c0.059,0.309,0.116,0.619,0.167,0.931c0.046,0.285,0.084,0.572,0.122,0.859c0.036,0.269,0.074,0.538,0.103,0.81    c0.038,0.358,0.065,0.718,0.091,1.078c0.016,0.212,0.037,0.423,0.048,0.636c0.031,0.58,0.049,1.162,0.049,1.748    C439.494,483.013,425.079,497.427,407.36,497.427z M461.859,458.008h-8.357c-0.908-5.816-2.897-11.353-5.846-16.363h14.203    c4.511,0,8.181,3.67,8.181,8.181C470.041,454.339,466.371,458.008,461.859,458.008z" fill="#FFFFFF"/>
	</g>
</g>
<g>
</g>
<g>
</g>
<g>
</g>
<g>
</g>
<g>
</g>
<g>
</g>
<g>
</g>
<g>
</g>
<g>
</g>
<g>
</g>
<g>
</g>
<g>
</g>
<g>
</g>
<g>
</g>
<g>
</g>
</svg>
