<?xml version="1.0" encoding="iso-8859-1"?>
<!-- Generator: Adobe Illustrator 19.0.0, SVG Export Plug-In . SVG Version: 6.00 Build 0)  -->
<svg xmlns="http://www.w3.org/2000/svg" xmlns:xlink="http://www.w3.org/1999/xlink" version="1.1" id="Capa_1" x="0px" y="0px" viewBox="0 0 512 512" style="enable-background:new 0 0 512 512;" xml:space="preserve" width="512px" height="512px">
<g>
	<g>
		<path d="M434.667,256.615v-49.976l22.262,14.809c8.383,5.577,19.214,5.575,27.598,0c6.96-4.63,11.115-12.384,11.115-20.743    c0-8.359-4.155-16.113-11.115-20.743l-57.571-38.297c-3.348-2.226-7.867-1.319-10.092,2.029    c-2.227,3.347-1.318,7.865,2.028,10.092l57.571,38.297c2.936,1.953,4.62,5.096,4.62,8.622s-1.684,6.669-4.62,8.622    c-3.486,2.317-7.989,2.317-11.471,0L254.888,69.563c-0.223-0.148-0.451-0.284-0.681-0.417c-0.046-0.027-0.091-0.058-0.137-0.084    c-0.243-0.137-0.491-0.262-0.74-0.381c-0.035-0.017-0.069-0.037-0.105-0.054c-0.264-0.124-0.532-0.236-0.802-0.341    c-0.022-0.008-0.043-0.019-0.065-0.027c-0.135-0.052-0.273-0.093-0.41-0.14c-3.698-1.269-7.83-0.793-11.193,1.444L30.649,209.327    c-3.485,2.317-7.988,2.317-11.471,0c-2.936-1.953-4.62-5.096-4.62-8.622s1.684-6.669,4.62-8.622L247.821,39.987l133.249,88.64    c3.347,2.227,7.866,1.318,10.092-2.029c2.227-3.347,1.318-7.865-2.028-10.092L254.888,27.203c-4.293-2.856-9.841-2.856-14.133,0    l-68.627,45.651V61.029h2.084c5.213,0,9.454-4.241,9.454-9.454v-22.04c0-5.213-4.241-9.454-9.454-9.454H97.358    c-5.213,0-9.454,4.241-9.454,9.454v22.041c0,5.213,4.241,9.454,9.454,9.454h2.083v60.176l-88.326,58.755    C4.155,184.59,0,192.345,0,200.704s4.155,16.114,11.115,20.744c4.191,2.788,8.995,4.182,13.798,4.182    c4.804,0,9.608-1.394,13.799-4.182l22.262-14.809V335.51c0,4.02,3.259,7.279,7.279,7.279c4.02,0,7.279-3.259,7.279-7.279V196.955    L247.821,82.347l172.288,114.608v54.955c-0.627-0.159-1.258-0.298-1.887-0.447c-0.285-0.068-0.57-0.137-0.856-0.203    c-0.711-0.162-1.423-0.317-2.136-0.466c-0.413-0.087-0.826-0.17-1.24-0.253c-0.661-0.131-1.321-0.261-1.984-0.381    c-0.499-0.091-1-0.173-1.501-0.258c-0.602-0.101-1.203-0.208-1.806-0.3c-1.042-0.16-2.089-0.306-3.14-0.439    c-0.474-0.06-0.95-0.109-1.425-0.163c-0.684-0.079-1.368-0.156-2.055-0.223c-0.492-0.048-0.985-0.09-1.479-0.132    c-0.686-0.059-1.374-0.112-2.063-0.159c-0.475-0.032-0.95-0.064-1.425-0.091c-0.751-0.043-1.504-0.075-2.259-0.104    c-0.41-0.016-0.82-0.035-1.231-0.047c-1.099-0.031-2.202-0.049-3.308-0.051c-0.059,0-0.119-0.003-0.178-0.003    c-58.797,0-108.002,41.856-119.385,97.336c-1.626,7.926-2.48,16.13-2.48,24.529c0,1.024,0.013,2.048,0.039,3.071    c0.284,11.427,2.15,22.467,5.385,32.912c0.007,0.022,0.013,0.044,0.02,0.065c0.142,0.456,0.292,0.909,0.439,1.363    c1.094,3.403,2.329,6.759,3.719,10.052h-35.857V248.051c0-8.453-6.877-15.329-15.329-15.329H119.95    c-8.453,0-15.329,6.877-15.329,15.329v169.466H75.532v-36.602c0-4.02-3.259-7.279-7.279-7.279c-4.02,0-7.279,3.259-7.279,7.279    v36.602H31.015c-11.137,0-20.199,9.061-20.199,20.199c0,11.137,9.061,20.199,20.199,20.199h274.76    c21.912,21.047,51.65,34.004,84.36,34.004C457.332,491.92,512,437.251,512,370.055C512,318.566,479.903,274.435,434.667,256.615z     M157.57,82.538l-43.571,28.983V61.029h43.571V82.538z M102.462,34.638h66.646v11.833h-66.646V34.638z M119.178,248.051    c0-0.426,0.346-0.771,0.771-0.771h106.735c0.426,0,0.771,0.346,0.771,0.771v169.466H119.178V248.051z M31.015,443.358    L31.015,443.358c-3.11,0-5.641-2.531-5.641-5.641c0-3.111,2.531-5.641,5.641-5.641h254.199c2.309,3.898,4.834,7.664,7.562,11.282    H31.015z M390.135,477.362c-46.956,0-86.96-30.319-101.476-72.407c-0.127-0.371-0.253-0.741-0.376-1.113    c-0.158-0.474-0.313-0.949-0.464-1.425c-0.239-0.758-0.471-1.518-0.693-2.281c-0.044-0.151-0.091-0.3-0.135-0.451    c-1.818-6.349-3.052-12.872-3.679-19.471c-0.011-0.112-0.02-0.224-0.03-0.337c-0.084-0.91-0.154-1.821-0.214-2.733    c-0.016-0.242-0.032-0.484-0.046-0.727c-0.048-0.812-0.085-1.624-0.115-2.438c-0.01-0.265-0.023-0.528-0.03-0.793    c-0.03-1.043-0.049-2.087-0.049-3.131c0-7.396,0.752-14.62,2.184-21.599c10.023-48.853,53.35-85.708,105.123-85.708    c0.02,0,0.041,0.001,0.061,0.001c1.3,0.001,2.596,0.033,3.89,0.08c0.303,0.011,0.606,0.021,0.908,0.035    c1.252,0.056,2.501,0.132,3.746,0.231c0.306,0.024,0.61,0.055,0.914,0.081c1.062,0.093,2.122,0.203,3.179,0.328    c0.291,0.034,0.584,0.063,0.875,0.1c1.156,0.146,2.308,0.318,3.457,0.502c0.455,0.073,0.909,0.148,1.362,0.226    c1.081,0.187,2.16,0.387,3.234,0.607c0.505,0.104,1.005,0.218,1.507,0.329c0.696,0.153,1.389,0.314,2.082,0.481    c0.828,0.2,1.653,0.41,2.474,0.629c0.65,0.173,1.3,0.35,1.947,0.536c0.691,0.199,1.38,0.403,2.065,0.616    c0.326,0.101,0.651,0.209,0.976,0.313c43.238,13.856,74.628,54.434,74.628,102.212    C497.442,429.224,449.304,477.362,390.135,477.362z" fill="#ffffff"/>
	</g>
</g>
<g>
	<g>
		<path d="M400.603,360.589V330.25c11.549,0.862,15.513,6.378,20.34,6.378c6.378,0,9.136-7.929,9.136-11.894    c0-9.998-18.271-13.274-29.476-13.618v-4.482c0-2.241-2.931-4.31-5.861-4.31c-3.276,0-5.861,2.068-5.861,4.31v4.826    c-17.237,2.242-33.442,11.722-33.442,33.614c0,22.064,17.756,28.787,33.442,34.648v34.303    c-15.169-1.724-20.34-12.929-26.891-12.929c-5.344,0-9.653,7.24-9.653,12.067c0,9.653,15.686,20.857,36.544,21.374v4.827    c0,2.241,2.586,4.31,5.861,4.31c2.931,0,5.861-2.069,5.861-4.31v-5.345c19.306-3.102,32.579-15.341,32.579-36.544    C433.182,374.034,415.945,366.278,400.603,360.589z M390.26,356.796c-7.929-3.102-13.79-6.378-13.79-13.962    c0-6.551,5.172-10.688,13.79-12.067V356.796z M399.224,413.854V383.86c7.412,3.275,12.928,7.413,12.928,15.858    C412.152,407.821,406.808,412.302,399.224,413.854z" fill="#ffffff"/>
	</g>
</g>
<g>
	<g>
		<path d="M205.318,313.824c-4.006,0-7.252,3.246-7.252,7.252v14.988c0,4.006,3.246,7.252,7.252,7.252s7.252-3.246,7.252-7.252    v-14.988C212.57,317.07,209.324,313.824,205.318,313.824z" fill="#ffffff"/>
	</g>
</g>
<g>
</g>
<g>
</g>
<g>
</g>
<g>
</g>
<g>
</g>
<g>
</g>
<g>
</g>
<g>
</g>
<g>
</g>
<g>
</g>
<g>
</g>
<g>
</g>
<g>
</g>
<g>
</g>
<g>
</g>
</svg>
