<?xml version="1.0" encoding="iso-8859-1"?>
<!-- Generator: Adobe Illustrator 19.0.0, SVG Export Plug-In . SVG Version: 6.00 Build 0)  -->
<svg xmlns="http://www.w3.org/2000/svg" xmlns:xlink="http://www.w3.org/1999/xlink" version="1.1" id="Capa_1" x="0px" y="0px" viewBox="0 0 512 512" style="enable-background:new 0 0 512 512;" xml:space="preserve" width="512px" height="512px">
<g>
	<g>
		<path d="M489.902,444.947h-41.415V209.498l23.303,15.501c8.572,5.704,19.648,5.702,28.219,0.001    c7.117-4.734,11.365-12.663,11.365-21.211c0-8.548-4.249-16.476-11.365-21.21l-55.426-36.87c-3.351-2.228-7.874-1.319-10.102,2.03    c-2.229,3.351-1.319,7.874,2.031,10.102l55.426,36.871c3.091,2.055,4.863,5.363,4.863,9.076s-1.773,7.021-4.864,9.077    c-3.668,2.44-8.408,2.44-12.076,0L263.165,68.716c-4.353-2.894-9.978-2.895-14.331,0.002L32.138,212.866    c-3.668,2.44-8.407,2.441-12.075-0.001c-3.091-2.055-4.863-5.363-4.863-9.076c0-3.713,1.773-7.021,4.863-9.077L256,37.765    l142.811,94.999c3.352,2.232,7.874,1.32,10.102-2.03c2.229-3.351,1.319-7.874-2.031-10.102L263.165,25.027    c-4.353-2.894-9.978-2.895-14.331,0.002l-70.795,47.093v-6.31h2.104c5.221,0,9.468-4.248,9.468-9.468V34.238    c0-5.22-4.248-9.468-9.468-9.468h-77.084c-5.221,0-9.468,4.248-9.468,9.468v22.107c0,5.22,4.247,9.468,9.468,9.468h2.104V120.6    l-93.172,61.979c-7.117,4.734-11.365,12.663-11.365,21.211c0,8.548,4.249,16.476,11.365,21.21    c4.286,2.852,9.197,4.277,14.11,4.277c4.911,0,9.824-1.426,14.109-4.277l23.303-15.501v129.786c0,4.025,3.262,7.287,7.287,7.287    c4.024,0,7.287-3.262,7.287-7.287v-139.48L256,81.453l177.914,118.35v245.143H78.086v-60.062c0-4.025-3.262-7.287-7.287-7.287    c-4.024,0-7.287,3.262-7.287,7.287v60.062H22.098C9.913,444.947,0,454.86,0,467.045s9.913,22.098,22.098,22.098h467.804    c12.185,0,22.098-9.913,22.098-22.098S502.087,444.947,489.902,444.947z M163.466,81.817l-43.73,29.089V65.813h43.73V81.817z     M108.165,39.343h66.874V51.24h-66.874V39.343z M489.902,474.57H22.098c-4.149,0-7.525-3.376-7.525-7.525    c0-4.15,3.376-7.526,7.525-7.526h467.804c4.149,0,7.525,3.376,7.525,7.526C497.427,471.194,494.051,474.57,489.902,474.57z" fill="#FFFFFF"/>
	</g>
</g>
<g>
	<g>
		<path d="M368.258,235.566c-14.318-16.21-31.093-24.824-49.858-25.606c-27.934-1.146-52.227,15.528-62.399,23.723    c-10.171-8.195-34.47-24.861-62.398-23.723c-18.765,0.782-35.54,9.397-49.858,25.606c-17.127,19.388-23.542,40.536-19.067,62.854    c13.526,67.475,123.469,121.495,128.142,123.762c1.004,0.487,2.092,0.731,3.18,0.731s2.176-0.244,3.18-0.731    c4.674-2.267,114.617-56.287,128.145-123.762C391.799,276.102,385.384,254.954,368.258,235.566z M373.039,295.543    C362.129,350.023,273.97,398.159,256,407.458c-17.97-9.299-106.129-57.435-117.038-111.915    c-3.575-17.856,1.561-34.319,15.704-50.33c11.571-13.099,24.849-20.06,39.467-20.689c0.75-0.033,1.492-0.048,2.238-0.048    c28.962,0,54.336,23.842,54.588,24.083c2.812,2.695,7.254,2.695,10.075,0.008c0.266-0.253,26.921-25.326,56.834-24.042    c14.618,0.629,27.897,7.59,39.467,20.689C371.477,261.224,376.614,277.687,373.039,295.543z" fill="#FFFFFF"/>
	</g>
</g>
<g>
</g>
<g>
</g>
<g>
</g>
<g>
</g>
<g>
</g>
<g>
</g>
<g>
</g>
<g>
</g>
<g>
</g>
<g>
</g>
<g>
</g>
<g>
</g>
<g>
</g>
<g>
</g>
<g>
</g>
</svg>
